<?xml version="1.0" encoding="UTF-8" standalone="no"?>
<!-- Created with Inkscape (http://www.inkscape.org/) -->

<svg
   width="48"
   height="48"
   viewBox="0 0 48 48"
   version="1.1"
   id="svg1"
   inkscape:version="1.4.3 (0d15f75042, 2025-12-25)"
   sodipodi:docname="application-json.svg"
   xmlns:inkscape="http://www.inkscape.org/namespaces/inkscape"
   xmlns:sodipodi="http://sodipodi.sourceforge.net/DTD/sodipodi-0.dtd"
   xmlns:xlink="http://www.w3.org/1999/xlink"
   xmlns="http://www.w3.org/2000/svg"
   xmlns:svg="http://www.w3.org/2000/svg">
  <sodipodi:namedview
     id="namedview1"
     pagecolor="#ffffff"
     bordercolor="#000000"
     borderopacity="0.25"
     inkscape:showpageshadow="2"
     inkscape:pageopacity="0.0"
     inkscape:pagecheckerboard="0"
     inkscape:deskcolor="#d1d1d1"
     inkscape:document-units="px"
     inkscape:zoom="22.627417"
     inkscape:cx="20.285126"
     inkscape:cy="21.235301"
     inkscape:window-width="1901"
     inkscape:window-height="1061"
     inkscape:window-x="0"
     inkscape:window-y="0"
     inkscape:window-maximized="1"
     inkscape:current-layer="svg1" />
  <defs
     id="defs1">
    <rect
       x="-6.7826085"
       y="12.149068"
       width="22.509316"
       height="32.049689"
       id="rect4" />
    <rect
       x="-20.198757"
       y="-0.59627328"
       width="48.819875"
       height="48.149067"
       id="rect3" />
    <rect
       x="-12.298136"
       y="1.1180124"
       width="64.397514"
       height="51.130434"
       id="rect2" />
    <rect
       x="17.515528"
       y="23.180124"
       width="46.956522"
       height="54.708075"
       id="rect1" />
    <linearGradient
       id="linearGradient3005"
       x1="-666.12"
       x2="-553.27002"
       y1="413.04001"
       y2="525.90997"
       gradientTransform="matrix(0.99884,0,0,0.9987,689.01,-388.84)"
       gradientUnits="userSpaceOnUse"
       xlink:href="#linearGradient8385" />
    <linearGradient
       id="linearGradient8385">
      <stop
         offset="0"
         id="stop1" />
      <stop
         stop-color="#fff"
         offset="1"
         id="stop2" />
    </linearGradient>
    <linearGradient
       id="linearGradient3002"
       x1="-553.27002"
       x2="-666.12"
       y1="525.90997"
       y2="413.04999"
       gradientTransform="matrix(0.99884,0,0,0.9987,689.01,-388.84)"
       gradientUnits="userSpaceOnUse"
       xlink:href="#linearGradient8385" />
  </defs>
  <rect
     style="display:inline;isolation:isolate;fill:#f6ac5d;fill-opacity:0.79642856;stroke:#4f4f5b;stroke-width:3.01293;stroke-dasharray:none;stroke-opacity:1"
     id="rect1-5"
     width="34.987068"
     height="40.987068"
     x="5.506465"
     y="3.506465"
     ry="6.4997749" />
  <g
     fill-rule="evenodd"
     id="g3"
     transform="matrix(0.15,0,0,0.15,11.1,11.900019)">
    <path
       d="m 79.865,119.1 c 35.398,48.255 70.04,-13.469 69.989,-50.587 C 149.7938,24.627 105.313,0.099 79.836,0.099 38.944,0.099 0,33.895 0,80.135 0,131.531 44.64,160 79.836,160 71.8715,158.8532 45.33,153.166 44.973,92.033 44.73313,50.686 58.461,34.167 79.778,41.434 c 0.47743,0.17707 23.514,9.2645 23.514,38.951 0,29.56 -23.427,38.715 -23.427,38.715 z"
       color="#000000"
       fill="url(#linearGradient3005)"
       id="path2"
       style="fill:#4f4f5b;fill-opacity:1;stroke:#f6bd7e;stroke-opacity:1;stroke-width:10;stroke-dasharray:none;stroke-linejoin:round;stroke-linecap:round" />
    <path
       d="M 79.823,41.401 C 56.433,33.3391 27.78,52.617 27.78,91.23 27.78,154.278 74.501,160 80.164,160 121.056,160 160,126.204 160,79.964 160,28.568 115.36,0.099 80.164,0.099 c 9.7481,-1.35 52.541,10.55 52.541,69.037 0,38.141 -31.953,58.905 -52.735,50.033 -0.47743,-0.17707 -23.514,-9.2645 -23.514,-38.951 0,-29.56 23.367,-38.818 23.367,-38.818 z"
       color="#000000"
       fill="url(#linearGradient3002)"
       id="path3"
       style="fill:#4f4f5b;fill-opacity:1;stroke:#f6bd7e;stroke-opacity:1;stroke-width:10;stroke-dasharray:none;stroke-linejoin:round;stroke-linecap:round" />
  </g>
</svg>
