<?xml version="1.0" encoding="UTF-8" standalone="no"?>
<!-- Created with Inkscape (http://www.inkscape.org/) -->

<svg
   width="48"
   height="48"
   viewBox="0 0 48 48"
   version="1.1"
   id="svg1"
   inkscape:version="1.4.3 (0d15f75042, 2025-12-25)"
   sodipodi:docname="text-x-rust.svg"
   xmlns:inkscape="http://www.inkscape.org/namespaces/inkscape"
   xmlns:sodipodi="http://sodipodi.sourceforge.net/DTD/sodipodi-0.dtd"
   xmlns:xlink="http://www.w3.org/1999/xlink"
   xmlns="http://www.w3.org/2000/svg"
   xmlns:svg="http://www.w3.org/2000/svg">
  <sodipodi:namedview
     id="namedview1"
     pagecolor="#ffffff"
     bordercolor="#000000"
     borderopacity="0.25"
     inkscape:showpageshadow="2"
     inkscape:pageopacity="0.0"
     inkscape:pagecheckerboard="0"
     inkscape:deskcolor="#d1d1d1"
     inkscape:document-units="px"
     inkscape:zoom="16"
     inkscape:cx="21.0625"
     inkscape:cy="25.03125"
     inkscape:window-width="1901"
     inkscape:window-height="1061"
     inkscape:window-x="0"
     inkscape:window-y="0"
     inkscape:window-maximized="1"
     inkscape:current-layer="svg1" />
  <defs
     id="defs1">
    <rect
       x="-18.25"
       y="9"
       width="29.25"
       height="32.6875"
       id="rect5" />
    <rect
       x="-6.7826085"
       y="12.149068"
       width="22.509316"
       height="32.049689"
       id="rect4" />
    <rect
       x="-20.198757"
       y="-0.59627328"
       width="48.819875"
       height="48.149067"
       id="rect3" />
    <rect
       x="-12.298136"
       y="1.1180124"
       width="64.397514"
       height="51.130434"
       id="rect2" />
    <rect
       x="17.515528"
       y="23.180124"
       width="46.956522"
       height="54.708075"
       id="rect1" />
    <linearGradient
       id="linearGradient3005"
       x1="-666.12"
       x2="-553.27002"
       y1="413.04001"
       y2="525.90997"
       gradientTransform="matrix(0.99884,0,0,0.9987,689.01,-388.84)"
       gradientUnits="userSpaceOnUse"
       xlink:href="#linearGradient8385" />
    <linearGradient
       id="linearGradient8385">
      <stop
         offset="0"
         id="stop1" />
      <stop
         stop-color="#fff"
         offset="1"
         id="stop2" />
    </linearGradient>
    <linearGradient
       id="linearGradient3002"
       x1="-553.27002"
       x2="-666.12"
       y1="525.90997"
       y2="413.04999"
       gradientTransform="matrix(0.99884,0,0,0.9987,689.01,-388.84)"
       gradientUnits="userSpaceOnUse"
       xlink:href="#linearGradient8385" />
    <linearGradient
       id="_lgradient_2"
       x1="0.048175905"
       y1="0.95170456"
       x2="0.89688802"
       y2="0.15807271"
       gradientTransform="matrix(25.995716,0,0,29.321734,36.175,9.500002)"
       gradientUnits="userSpaceOnUse">
      <stop
         offset="0%"
         stop-opacity="1"
         style="stop-color:rgb(253,116,108)"
         id="stop1-5" />
      <stop
         offset="98.26086956521739%"
         stop-opacity="1"
         style="stop-color:rgb(255,144,104)"
         id="stop2-6" />
    </linearGradient>
  </defs>
  <rect
     style="display:inline;isolation:isolate;fill:#bfbfbf;fill-opacity:0.79607803;stroke:#4f4f5b;stroke-width:3.01293;stroke-dasharray:none;stroke-opacity:1"
     id="rect1-5"
     width="34.987068"
     height="40.987068"
     x="5.506465"
     y="3.506465"
     ry="6.4997749" />
  <path
     d="m 20.59644,12.092007 -0.04897,0.0055 c -0.363302,0.03866 -0.706907,0.193077 -0.973924,0.431647 -0.267013,0.244163 -0.446891,0.560985 -0.515074,0.910447 l -0.362728,1.797316 c -0.556416,0.249762 -1.085447,0.544823 -1.585121,0.888684 l -1.799134,-0.59305 c -0.170201,-0.05545 -0.35337,-0.08325 -0.535024,-0.08887 -0.602219,0 -1.164002,0.30392 -1.476302,0.803443 v 0.0036 c -0.0013,0.003 -0.0051,0.0093 -0.0072,0.01269 v 0.0036 l -0.0036,0.0019 -2.277953,3.852101 c -8.66e-4,0.0014 -0.0048,0.0077 -0.0055,0.0091 l -0.0019,0.0019 v 0.0036 l -0.0036,0.0019 c -0.136371,0.244167 -0.208568,0.522585 -0.208568,0.799815 -0.0052,0.482736 0.20379,0.942621 0.578551,1.264106 l 1.434588,1.226022 c -0.02787,0.28893 -0.04352,0.58394 -0.04352,0.872361 0,0.288419 0.01544,0.579803 0.04352,0.868733 L 11.370393,26.3982 c -0.374761,0.321483 -0.583731,0.781371 -0.578551,1.264107 0,0.282825 0.07218,0.555649 0.208568,0.799814 l 0.0036,0.0019 c 0,0 0,0.0019 0,0.0019 0.0014,0.0028 0.0041,0.0069 0.0055,0.0091 h 0.0019 v 0.0019 l 2.277932,3.852171 v 0.0036 c 0,0 0,0.0019 0,0.0019 0,0 0.0019,0.0019 0.0019,0.0019 0.0019,0.0034 0.0051,0.0061 0.0072,0.0091 v 0.0036 l 0.0019,0.0019 c 0.312298,0.505117 0.874082,0.810963 1.476302,0.805256 0.181654,0 0.36482,-0.03342 0.535024,-0.08887 l 1.800945,-0.59306 c 0.499679,0.343864 1.02687,0.638924 1.583307,0.888684 l 0.362728,1.797316 c 0.07391,0.377435 0.277702,0.715251 0.578551,0.959415 0.30085,0.244167 0.681782,0.382468 1.073676,0.38812 h 0.01088 4.555865 0.01088 c 0.391939,-0.0057 0.771015,-0.138349 1.071862,-0.38812 0.30085,-0.244164 0.506457,-0.581978 0.580365,-0.959415 l 0.362728,-1.797316 c 0.556417,-0.249763 1.085444,-0.544821 1.585121,-0.888684 l 1.799132,0.59306 c 0.170203,0.05544 0.351553,0.08887 0.53321,0.08887 0.602218,0.0057 1.165815,-0.300139 1.478114,-0.805256 v -0.0019 c 0,0 0,-0.0019 0,-0.0019 0,0 0.0019,0 0.0019,0 0,0 0.0019,-0.0019 0.0019,-0.0019 8.75e-4,-7.77e-4 0.0029,-0.0029 0.0036,-0.0036 0,0 0.0019,-0.0019 0.0019,-0.0019 v -0.0019 l 0.0019,-0.0036 v -0.0019 -0.0036 l 2.276118,-3.852171 0.0019,-0.0019 c 0,0 0.0019,-0.0019 0.0019,-0.0019 0,0 0.0019,-0.0019 0.0019,-0.0019 0,0 0.0019,0 0.0019,0 0,0 0,-0.0019 0,-0.0019 l 0.0036,-0.0019 v -0.0036 l 0.0019,-0.0019 c 0.136371,-0.244164 0.208567,-0.51699 0.208567,-0.799815 0.0052,-0.482734 -0.203789,-0.942625 -0.57855,-1.264106 L 33.20032,25.168152 c 0.02237,-0.288928 0.03809,-0.580313 0.03809,-0.868735 0,-0.28842 -0.0157,-0.583429 -0.03809,-0.872359 l 1.429147,-1.226021 h 0.0055 c 0.369032,-0.321483 0.578395,-0.781373 0.573109,-1.264107 0,-0.27723 -0.07219,-0.55565 -0.208568,-0.799816 l -0.0036,-0.0019 v -0.0036 c -7.3e-4,-0.0014 -0.0046,-0.0059 -0.0055,-0.0072 l -0.0023,-0.0035 -2.277932,-3.85217 v -0.0019 c 0,0 0,-0.0019 0,-0.0019 0,0 -0.0019,-0.0019 -0.0019,-0.0019 -0.0019,-0.0034 -0.0051,-0.0079 -0.0072,-0.01088 v -0.0019 l -0.0019,-0.0036 c -0.312299,-0.49952 -0.874086,-0.803441 -1.476302,-0.803441 -0.181659,0.0057 -0.364823,0.03343 -0.535024,0.08887 l -1.800945,0.59306 c -0.499603,-0.343695 -1.026822,-0.63875 -1.583232,-0.888512 l -0.362728,-1.797316 c -0.07391,-0.37744 -0.277701,-0.715252 -0.578553,-0.959417 -0.300848,-0.244166 -0.681738,-0.382504 -1.073676,-0.388118 h -0.01088 -4.544981 -0.03265 z m 2.46111,5.633164 a 6.5735708,6.57357 0 0 1 6.574445,6.574445 6.5735708,6.57357 0 0 1 -6.574445,6.574444 6.5735708,6.57357 0 0 1 -6.574444,-6.574444 6.5735708,6.57357 0 0 1 6.574444,-6.574445 z"
     style="isolation:isolate;fill:#8f1f1d;fill-opacity:0.796078;fill-rule:evenodd;stroke:#4f4f5b;stroke-width:1.58358;stroke-linecap:round;stroke-linejoin:round"
     id="path16" />
</svg>
