<?xml version="1.0" encoding="UTF-8" standalone="no"?>
<!-- Created with Inkscape (http://www.inkscape.org/) -->

<svg
   width="48"
   height="48"
   viewBox="0 0 48 48"
   version="1.1"
   id="svg1"
   inkscape:version="1.4.3 (0d15f75042, 2025-12-25)"
   sodipodi:docname="text-x-rust.svg"
   xmlns:inkscape="http://www.inkscape.org/namespaces/inkscape"
   xmlns:sodipodi="http://sodipodi.sourceforge.net/DTD/sodipodi-0.dtd"
   xmlns:xlink="http://www.w3.org/1999/xlink"
   xmlns="http://www.w3.org/2000/svg"
   xmlns:svg="http://www.w3.org/2000/svg">
  <sodipodi:namedview
     id="namedview1"
     pagecolor="#ffffff"
     bordercolor="#000000"
     borderopacity="0.25"
     inkscape:showpageshadow="2"
     inkscape:pageopacity="0.0"
     inkscape:pagecheckerboard="0"
     inkscape:deskcolor="#d1d1d1"
     inkscape:document-units="px"
     inkscape:zoom="11.313709"
     inkscape:cx="20.682872"
     inkscape:cy="20.55029"
     inkscape:window-width="1901"
     inkscape:window-height="1061"
     inkscape:window-x="0"
     inkscape:window-y="0"
     inkscape:window-maximized="1"
     inkscape:current-layer="logo" />
  <defs
     id="defs1">
    <rect
       x="-18.25"
       y="9"
       width="29.25"
       height="32.6875"
       id="rect5" />
    <rect
       x="-6.7826085"
       y="12.149068"
       width="22.509316"
       height="32.049689"
       id="rect4" />
    <rect
       x="-20.198757"
       y="-0.59627328"
       width="48.819875"
       height="48.149067"
       id="rect3" />
    <rect
       x="-12.298136"
       y="1.1180124"
       width="64.397514"
       height="51.130434"
       id="rect2" />
    <rect
       x="17.515528"
       y="23.180124"
       width="46.956522"
       height="54.708075"
       id="rect1" />
    <linearGradient
       id="linearGradient3005"
       x1="-666.12"
       x2="-553.27002"
       y1="413.04001"
       y2="525.90997"
       gradientTransform="matrix(0.99884,0,0,0.9987,689.01,-388.84)"
       gradientUnits="userSpaceOnUse"
       xlink:href="#linearGradient8385" />
    <linearGradient
       id="linearGradient8385">
      <stop
         offset="0"
         id="stop1" />
      <stop
         stop-color="#fff"
         offset="1"
         id="stop2" />
    </linearGradient>
    <linearGradient
       id="linearGradient3002"
       x1="-553.27002"
       x2="-666.12"
       y1="525.90997"
       y2="413.04999"
       gradientTransform="matrix(0.99884,0,0,0.9987,689.01,-388.84)"
       gradientUnits="userSpaceOnUse"
       xlink:href="#linearGradient8385" />
    <linearGradient
       id="_lgradient_2"
       x1="0.048175905"
       y1="0.95170456"
       x2="0.89688802"
       y2="0.15807271"
       gradientTransform="matrix(25.995716,0,0,29.321734,36.175,9.500002)"
       gradientUnits="userSpaceOnUse">
      <stop
         offset="0%"
         stop-opacity="1"
         style="stop-color:rgb(253,116,108)"
         id="stop1-5" />
      <stop
         offset="98.26086956521739%"
         stop-opacity="1"
         style="stop-color:rgb(255,144,104)"
         id="stop2-6" />
    </linearGradient>
    <mask
       id="holes">
      <rect
         x="-60"
         y="-60"
         width="120"
         height="120"
         fill="#ffffff"
         id="rect35" />
      <circle
         id="hole"
         cy="-40"
         r="3"
         cx="0" />
      <use
         xlink:href="#hole"
         transform="rotate(72)"
         id="use36" />
      <use
         xlink:href="#hole"
         transform="rotate(144)"
         id="use37" />
      <use
         xlink:href="#hole"
         transform="rotate(-144)"
         id="use38" />
      <use
         xlink:href="#hole"
         transform="rotate(-72)"
         id="use39" />
    </mask>
    <mask
       id="holes-2">
      <rect
         x="-60"
         y="-60"
         width="120"
         height="120"
         fill="#ffffff"
         id="rect35-7" />
      <circle
         id="hole-0"
         cy="-40"
         r="3"
         cx="0" />
      <use
         xlink:href="#hole-0"
         transform="rotate(72)"
         id="use36-9" />
      <use
         xlink:href="#hole-0"
         transform="rotate(144)"
         id="use37-3" />
      <use
         xlink:href="#hole-0"
         transform="rotate(-144)"
         id="use38-6" />
      <use
         xlink:href="#hole-0"
         transform="rotate(-72)"
         id="use39-0" />
    </mask>
    <mask
       id="holes-1">
      <rect
         x="-60"
         y="-60"
         width="120"
         height="120"
         fill="#ffffff"
         id="rect35-9" />
      <circle
         id="hole-4"
         cy="-40"
         r="3"
         cx="0" />
      <use
         xlink:href="#hole-4"
         transform="rotate(72)"
         id="use36-7" />
      <use
         xlink:href="#hole-4"
         transform="rotate(144)"
         id="use37-8" />
      <use
         xlink:href="#hole-4"
         transform="rotate(-144)"
         id="use38-4" />
      <use
         xlink:href="#hole-4"
         transform="rotate(-72)"
         id="use39-5" />
    </mask>
  </defs>
  <rect
     style="display:inline;isolation:isolate;fill:#bfbfbf;fill-opacity:0.796078;stroke:#4f4f5b;stroke-width:3.01293;stroke-dasharray:none;stroke-opacity:1"
     id="rect1-5"
     width="34.987068"
     height="40.987068"
     x="6.506465"
     y="3.506465"
     ry="6.4997749" />
  <path
     d="m -37.607168,12.276844 -0.04802,0.0055 c -0.356305,0.03791 -0.693293,0.189358 -0.955168,0.423334 -0.261871,0.23946 -0.438285,0.550181 -0.505154,0.892913 l -0.355742,1.762702 c -0.545702,0.24493 -1.064545,0.534309 -1.554595,0.871546 l -1.764489,-0.581669 c -0.166924,-0.0544 -0.346564,-0.08165 -0.524721,-0.08717 -0.59062,0 -1.141585,0.298067 -1.44787,0.787971 v 0.0036 c -0.0013,0.003 -0.0051,0.0093 -0.0072,0.01244 v 0.0036 l -0.0036,0.0019 -2.234083,3.777915 c -8.49e-4,0.0014 -0.0048,0.0077 -0.0055,0.0091 l -0.0019,0.0019 v 0.0036 l -0.0036,0.0019 c -0.133743,0.239465 -0.204551,0.512521 -0.204551,0.784414 -0.0052,0.473437 0.199866,0.924466 0.567408,1.239759 l 1.406962,1.202411 c -0.02732,0.283366 -0.04267,0.572695 -0.04267,0.855561 0,0.282863 0.01514,0.568637 0.04267,0.852003 l -1.406962,1.205967 c -0.367542,0.315292 -0.572488,0.766323 -0.567408,1.23976 0,0.277378 0.07078,0.54495 0.204551,0.784413 l 0.0036,0.0019 c 0,0 0,0.0019 0,0.0019 0.0014,0.0028 0.0041,0.0069 0.0055,0.0091 h 0.0019 v 0.0019 l 2.234062,3.777984 v 0.0036 c 0,0 0,0.0019 0,0.0019 0,0 0.0019,0.0019 0.0019,0.0019 0.0019,0.0034 0.0051,0.0061 0.0072,0.0091 v 0.0036 l 0.0019,0.0019 c 0.306286,0.49539 0.85725,0.795346 1.447872,0.789749 0.178156,0 0.357794,-0.03277 0.52472,-0.08717 l 1.766261,-0.581637 c 0.490055,0.337242 1.007093,0.626618 1.552815,0.871569 l 0.355742,1.762702 c 0.07249,0.370165 0.272355,0.701477 0.567409,0.940939 0.295055,0.239464 0.668651,0.375102 1.052999,0.380644 h 0.01068 4.468125 0.01068 c 0.384391,-0.0057 0.756167,-0.135685 1.05122,-0.380644 0.295056,-0.239462 0.496703,-0.570772 0.569189,-0.940939 l 0.355742,-1.762702 c 0.545702,-0.244953 1.06454,-0.534328 1.554594,-0.871569 l 1.764483,0.581637 c 0.166924,0.05439 0.344782,0.08717 0.522941,0.08717 0.59062,0.0057 1.143362,-0.294359 1.449648,-0.789749 v -0.0019 c 0,0 0,-0.0019 0,-0.0019 0,0 0.0019,0 0.0019,0 0,0 0.0019,-0.0019 0.0019,-0.0019 8.58e-4,-7.62e-4 0.0029,-0.0029 0.0036,-0.0036 0,0 0.0019,-0.0019 0.0019,-0.0019 v -0.0019 l 0.0019,-0.0036 v -0.0019 -0.0036 l 2.232283,-3.777984 0.0019,-0.0019 c 0,0 0.0019,-0.0019 0.0019,-0.0019 0,0 0.0019,-0.0019 0.0019,-0.0019 0,0 0.0019,0 0.0019,0 0,0 0,-0.0019 0,-0.0019 l 0.0036,-0.0019 v -0.0036 l 0.0019,-0.0019 c 0.133743,-0.239462 0.20455,-0.507031 0.20455,-0.78441 0.0052,-0.473437 -0.199867,-0.924471 -0.567409,-1.23976 l -1.401723,-1.206062 c 0.02192,-0.283365 0.03734,-0.569138 0.03734,-0.852003 0,-0.282868 -0.0154,-0.572195 -0.03734,-0.855559 l 1.401625,-1.20241 h 0.0055 c 0.361925,-0.315292 0.567255,-0.766325 0.562073,-1.239762 0,-0.271891 -0.07079,-0.544949 -0.204552,-0.784413 l -0.0036,-0.0019 v -0.0036 c -7.16e-4,-0.0014 -0.0046,-0.0059 -0.0055,-0.0072 l -0.0023,-0.0035 -2.234062,-3.777983 v -0.0019 c 0,0 0,-0.0019 0,-0.0019 0,0 -0.0019,-0.0019 -0.0019,-0.0019 -0.0019,-0.0034 -0.0051,-0.0079 -0.0072,-0.01068 v -0.0019 l -0.0019,-0.0036 c -0.306283,-0.489901 -0.857252,-0.78797 -1.44787,-0.78797 -0.178161,0.0057 -0.357797,0.03278 -0.524721,0.08717 l -1.766296,0.581648 c -0.490012,-0.337064 -1.007078,-0.626437 -1.552773,-0.871388 l -0.355742,-1.762703 c -0.07249,-0.370172 -0.272354,-0.701477 -0.567411,-0.94094 -0.295053,-0.239463 -0.668608,-0.375137 -1.052998,-0.380644 h -0.01068 -4.457451 -0.032 z m 2.413712,5.524677 a 6.4469731,6.4469723 0 0 1 6.447832,6.44783 6.4469731,6.4469723 0 0 1 -6.447832,6.44783 6.4469731,6.4469723 0 0 1 -6.447829,-6.44783 6.4469731,6.4469723 0 0 1 6.447829,-6.44783 z"
     style="isolation:isolate;fill:#4f4f5b;fill-opacity:1;fill-rule:evenodd;stroke:#4f4f5b;stroke-width:1.55309;stroke-linecap:round;stroke-linejoin:round"
     id="path16" />
  <path
     id="circle1"
     style="baseline-shift:baseline;display:inline;overflow:visible;fill:#4f4f5b;fill-opacity:1;stroke:none;stroke-width:0.245;stroke-dasharray:none;stroke-opacity:1;enable-background:accumulate;stop-color:#000000"
     d="m -66.711842,11.123541 a 0.36805393,0.36805401 0 0 0 -0.290389,0.178258 l -0.652655,1.087758 c -0.116323,0.0096 -0.232071,0.021 -0.347411,0.03402 h -4.91e-4 l -0.851998,-0.939211 a 0.36805393,0.36805401 0 0 0 -0.619592,0.123151 l -0.427903,1.193661 c -0.111966,0.03222 -0.223427,0.0666 -0.333996,0.102067 l -1.019235,-0.755202 a 0.36805393,0.36805401 0 0 0 -0.583652,0.241511 l -0.186883,1.258351 c -0.101908,0.05279 -0.203193,0.107242 -0.303327,0.162924 h -4.91e-4 l -1.150999,-0.543879 a 0.36805393,0.36805401 0 0 0 -0.524713,0.350767 l 0.06181,1.275601 c -0.08836,0.07054 -0.175394,0.142128 -0.261638,0.215155 l -1.239179,-0.309556 a 0.36805393,0.36805401 0 0 0 -0.446604,0.446604 l 0.309555,1.239183 c -0.07302,0.08624 -0.144612,0.17328 -0.215155,0.261637 l -1.2756,-0.06181 a 0.36805393,0.36805401 0 0 0 -0.350767,0.524712 l 0.543878,1.151491 c -0.05569,0.100135 -0.110135,0.20142 -0.162924,0.303327 l -1.258349,0.186884 a 0.36805393,0.36805401 0 0 0 -0.241511,0.583652 l 0.755201,1.019234 c -0.03546,0.11057 -0.06984,0.222031 -0.102067,0.333997 l -1.193661,0.427915 a 0.36805393,0.36805401 0 0 0 -0.12315,0.619592 l 0.93921,0.851998 c -0.01306,0.115498 -0.02437,0.231408 -0.03402,0.347891 l -1.087759,0.652655 a 0.36805393,0.36805401 0 0 0 0,0.631572 l 1.087759,0.652655 c 0.0096,0.116322 0.021,0.23255 0.03402,0.34789 l -0.93921,0.852001 a 0.36805393,0.36805401 0 0 0 0.12315,0.61959 l 1.193661,0.427916 c 0.03221,0.111966 0.0666,0.223426 0.102067,0.333995 l -0.755201,1.019235 a 0.36805393,0.36805401 0 0 0 0.241511,0.583652 l 1.258349,0.186884 c 0.05279,0.101906 0.107242,0.203672 0.162924,0.303806 l -0.543878,1.151011 a 0.36805393,0.36805401 0 0 0 0.350767,0.524713 l 1.2756,-0.06181 c 0.07054,0.08836 0.142129,0.175395 0.215155,0.261637 l -0.309555,1.239184 a 0.36805393,0.36805401 0 0 0 0.446604,0.446604 l 1.239182,-0.309557 c 0.08624,0.07303 0.173281,0.144613 0.261637,0.215156 l -0.06181,1.275601 a 0.36805393,0.36805401 0 0 0 0.524713,0.350767 l 1.15149,-0.543879 c 0.100134,0.05568 0.201419,0.110136 0.303327,0.162923 l 0.186883,1.258351 a 0.36805393,0.36805401 0 0 0 0.583652,0.241513 l 1.019235,-0.755204 c 0.110569,0.03546 0.22203,0.06985 0.333996,0.102067 l 0.427915,1.193661 a 0.36805393,0.36805401 0 0 0 0.619592,0.123151 l 0.851998,-0.939209 c 0.115497,0.01305 0.231408,0.02438 0.34789,0.03401 l 0.652655,1.087757 a 0.36805393,0.36805401 0 0 0 0.631573,0 L -65.718,35.617756 c 0.116322,-0.0096 0.23207,-0.02099 0.347412,-0.03402 h 4.9e-4 l 0.851999,0.939209 a 0.36805393,0.36805401 0 0 0 0.619591,-0.123151 l 0.427916,-1.193661 c 0.111966,-0.03222 0.223426,-0.0666 0.333994,-0.102067 l 1.019234,0.755204 a 0.36805393,0.36805401 0 0 0 0.583653,-0.241513 l 0.186884,-1.258351 c 0.101895,-0.05279 0.20318,-0.107242 0.303314,-0.162923 h 4.91e-4 l 1.151012,0.543879 a 0.36805393,0.36805401 0 0 0 0.524713,-0.350767 l -0.06181,-1.275601 c 0.08836,-0.07054 0.175394,-0.142129 0.261636,-0.215156 l 1.239183,0.309557 a 0.36805393,0.36805401 0 0 0 0.446599,-0.446604 l -0.309554,-1.239171 c 0.07302,-0.08624 0.144612,-0.17328 0.215155,-0.261637 l 1.275601,0.06181 a 0.36805393,0.36805401 0 0 0 0.350767,-0.524713 l -0.543878,-1.151008 c 0.05575,-0.100255 0.11007,-0.201774 0.162923,-0.303806 l 1.25835,-0.186884 a 0.36805393,0.36805401 0 0 0 0.241513,-0.583652 l -0.755215,-1.019235 c 0.03546,-0.110569 0.06985,-0.222029 0.102067,-0.333995 l 1.193661,-0.427916 a 0.36805393,0.36805401 0 0 0 0.12315,-0.61959 l -0.939209,-0.852474 c 0.01303,-0.115342 0.02438,-0.231091 0.03402,-0.347413 l 1.087758,-0.652656 a 0.36805393,0.36805401 0 0 0 0,-0.631571 l -1.087758,-0.652658 c -0.0096,-0.116322 -0.02098,-0.232549 -0.03402,-0.347891 l 0.939209,-0.851998 a 0.36805393,0.36805401 0 0 0 -0.123155,-0.619592 l -1.193661,-0.427915 c -0.03222,-0.111966 -0.0666,-0.223426 -0.102067,-0.333996 l 0.755203,-1.019235 a 0.36805393,0.36805401 0 0 0 -0.241513,-0.583651 l -1.25835,-0.186884 c -0.05279,-0.101907 -0.107242,-0.203673 -0.162923,-0.303806 l 0.543878,-1.151012 a 0.36805393,0.36805401 0 0 0 -0.350766,-0.524713 l -1.275601,0.06181 c -0.07054,-0.08836 -0.14213,-0.175394 -0.215156,-0.261636 l 0.309556,-1.239184 a 0.36805393,0.36805401 0 0 0 -0.446604,-0.446601 l -1.239182,0.309557 c -0.08624,-0.07302 -0.173281,-0.144613 -0.261636,-0.215156 l 0.06181,-1.275601 a 0.36805393,0.36805401 0 0 0 -0.524708,-0.350762 l -1.151012,0.543878 c -0.100256,-0.05575 -0.201774,-0.110071 -0.303806,-0.162924 l -0.186884,-1.258351 a 0.36805393,0.36805401 0 0 0 -0.583651,-0.24151 l -1.019236,0.755201 c -0.110568,-0.03546 -0.222028,-0.06985 -0.333993,-0.102067 l -0.427916,-1.19366 a 0.36805393,0.36805401 0 0 0 -0.619593,-0.123154 l -0.852478,0.939212 c -0.115342,-0.01304 -0.23109,-0.0244 -0.347412,-0.03402 l -0.652653,-1.087763 a 0.36805393,0.36805401 0 0 0 -0.341184,-0.178257 z m 0.0254,2.330295 a 0.73603426,0.73603441 0 0 1 0.736033,0.736035 0.73603426,0.73603441 0 0 1 -0.736033,0.736035 0.73603426,0.73603441 0 0 1 -0.736035,-0.736035 0.73603426,0.73603441 0 0 1 0.736035,-0.736035 z m -1.740416,1.263142 1.220016,1.220017 a 0.73610786,0.73610802 0 0 0 1.040798,0 l 1.220016,-1.220017 c 2.836253,0.524989 5.221602,2.310262 6.556262,4.756911 l -0.785869,1.54203 a 0.73610786,0.73610802 0 0 0 0.322015,0.990005 l 1.536279,0.782994 c 0.05068,0.39754 0.07667,0.803081 0.07667,1.214745 0,2.517702 -0.977311,4.800602 -2.574203,6.491096 l -1.709266,-0.270742 a 0.73610786,0.73610802 0 0 0 -0.841935,0.611444 l -0.270743,1.709269 c -1.226345,0.580467 -2.598897,0.904709 -4.049625,0.904709 -1.450728,0 -2.823279,-0.324242 -4.049626,-0.904709 l -0.270742,-1.709269 a 0.73610786,0.73610802 0 0 0 -0.841936,-0.611444 l -1.709266,0.270742 c -1.596892,-1.690494 -2.574203,-3.973394 -2.574203,-6.491096 0,-0.411664 0.02599,-0.817684 0.07667,-1.215223 l 1.53628,-0.782516 a 0.73610786,0.73610802 0 0 0 0.322015,-0.990005 l -0.78588,-1.54203 c 1.334661,-2.446649 3.72001,-4.231922 6.556263,-4.756911 z m -7.554414,5.518821 a 0.73603426,0.73603441 0 0 1 0.188802,0.03546 0.73603426,0.73603441 0 0 1 0.472479,0.92723 0.73603426,0.73603441 0 0 1 -0.92723,0.47248 0.73603426,0.73603441 0 0 1 -0.472481,-0.927229 0.73603426,0.73603441 0 0 1 0.73843,-0.507941 z m 18.589657,0 a 0.73603426,0.73603441 0 0 1 0.73843,0.507941 0.73603426,0.73603441 0 0 1 -0.47248,0.92723 0.73603426,0.73603441 0 0 1 -0.92723,-0.472479 0.73603426,0.73603441 0 0 1 0.472481,-0.927232 0.73603426,0.73603441 0 0 1 0.188799,-0.03546 z M -72.47409,31.207312 a 0.73603426,0.73603441 0 0 1 0.451875,0.140403 0.73603426,0.73603441 0 0 1 0.162925,1.02834 0.73603426,0.73603441 0 0 1 -1.02834,0.162446 0.73603426,0.73603441 0 0 1 -0.162444,-1.027862 0.73603426,0.73603441 0 0 1 0.575984,-0.303327 z m 11.57529,0 a 0.73603426,0.73603441 0 0 1 0.575985,0.303327 0.73603426,0.73603441 0 0 1 -0.162444,1.027862 0.73603426,0.73603441 0 0 1 -1.028341,-0.162446 0.73603426,0.73603441 0 0 1 0.162925,-1.02834 0.73603426,0.73603441 0 0 1 0.451875,-0.140403 z" />
  <g
     id="logo"
     transform="matrix(0.24761971,0,0,0.24761972,24,24)">
    <path
       id="r"
       stroke="#000000"
       stroke-width="1"
       stroke-linejoin="round"
       d="M -10.192256,-12.649423 H 4.5298786 c 9.0597704,0 9.0597704,9.0597732 0,9.0597732 H -10.192256 Z M -45.298863,29.252015 H -7.4073738e-6 V 16.794829 H -10.192256 V 7.7350609 H 1.1324649 c 12.4571841,0 5.6623561,21.5169541 15.8546001,21.5169541 H 45.298846 V 7.7350609 h -6.794828 v 2.2649411 c 0,9.059778 -10.192241,7.927303 -11.324715,2.264947 C 26.046832,6.6025923 21.516947,2.0727069 20.384475,2.0727069 37.371549,-6.987064 27.179303,-25.106609 13.589649,-25.106609 h -53.226157 v 12.457186 h 11.324711 v 29.444252 h -16.987066 z"
       style="fill:#4f4f5b;fill-opacity:1;stroke:#4f4f5b;stroke-width:2.28666;stroke-linecap:round;stroke-dasharray:none;stroke-opacity:1" />
    <mask
       id="mask43">
      <rect
         x="-60"
         y="-60"
         width="120"
         height="120"
         fill="#ffffff"
         id="rect1-6" />
      <circle
         id="circle2"
         cy="-40"
         r="3"
         cx="0" />
      <use
         xlink:href="#hole-4"
         transform="rotate(72)"
         id="use40" />
      <use
         xlink:href="#hole-4"
         transform="rotate(144)"
         id="use41" />
      <use
         xlink:href="#hole-4"
         transform="rotate(-144)"
         id="use42" />
      <use
         xlink:href="#hole-4"
         transform="rotate(-72)"
         id="use43" />
    </mask>
  </g>
</svg>
