<?xml version="1.0" encoding="UTF-8" standalone="no"?>
<!-- Created with Inkscape (http://www.inkscape.org/) -->

<svg
   width="48"
   height="48"
   viewBox="0 0 48 48"
   version="1.1"
   id="svg1"
   inkscape:version="1.4.3 (0d15f75042, 2025-12-25)"
   sodipodi:docname="text-x-csrc.svg"
   xmlns:inkscape="http://www.inkscape.org/namespaces/inkscape"
   xmlns:sodipodi="http://sodipodi.sourceforge.net/DTD/sodipodi-0.dtd"
   xmlns="http://www.w3.org/2000/svg"
   xmlns:svg="http://www.w3.org/2000/svg">
  <sodipodi:namedview
     id="namedview1"
     pagecolor="#ffffff"
     bordercolor="#000000"
     borderopacity="0.25"
     inkscape:showpageshadow="2"
     inkscape:pageopacity="0.0"
     inkscape:pagecheckerboard="0"
     inkscape:deskcolor="#d1d1d1"
     inkscape:document-units="px"
     inkscape:zoom="13.416667"
     inkscape:cx="22.695652"
     inkscape:cy="23.254658"
     inkscape:window-width="1901"
     inkscape:window-height="1061"
     inkscape:window-x="0"
     inkscape:window-y="0"
     inkscape:window-maximized="1"
     inkscape:current-layer="svg1" />
  <defs
     id="defs1">
    <rect
       x="-20.198757"
       y="-0.59627328"
       width="48.819875"
       height="48.149067"
       id="rect3" />
    <rect
       x="-12.298136"
       y="1.1180124"
       width="64.397514"
       height="51.130434"
       id="rect2" />
    <rect
       x="17.515528"
       y="23.180124"
       width="46.956522"
       height="54.708075"
       id="rect1" />
  </defs>
  <rect
     style="display:inline;isolation:isolate;fill:#abbbce;fill-opacity:1;stroke:#4f4f5b;stroke-width:3.01293;stroke-dasharray:none;stroke-opacity:1"
     id="rect1-5"
     width="34.987068"
     height="40.987068"
     x="5.506465"
     y="3.506465"
     ry="6.4997749" />
  <text
     xml:space="preserve"
     id="text2"
     style="font-size:32px;font-family:Helvetica;-inkscape-font-specification:Helvetica;writing-mode:lr-tb;direction:ltr;white-space:pre;shape-inside:url(#rect2);display:inline;fill:#4f4f5b;stroke:#4f4f5b;stroke-width:2.5;stroke-linecap:round;stroke-linejoin:round" />
  <text
     xml:space="preserve"
     id="text1"
     style="font-style:normal;font-variant:normal;font-weight:normal;font-stretch:normal;font-size:26.6667px;font-family:'Liberation Sans';-inkscape-font-specification:'Liberation Sans';writing-mode:lr-tb;direction:ltr;white-space:pre;shape-inside:url(#rect3);display:inline;fill:#4f4f5b;stroke:#4f4f5b;stroke-width:2.5;stroke-linecap:round;stroke-linejoin:round" />
  <path
     d="m 23.208345,16.281253 q -3.046879,0 -4.739589,1.966149 -1.692711,1.953127 -1.692711,5.36459 0,3.3724 1.757815,5.429694 1.770836,2.044273 4.778652,2.044273 3.854171,0 5.794278,-3.815109 l 2.031253,1.015627 q -1.132814,2.369794 -3.190109,3.606775 -2.044273,1.236981 -4.75261,1.236981 -2.773441,0 -4.804693,-1.145835 Q 16.372399,30.825542 15.304689,28.690123 14.25,26.541683 14.25,23.611992 q 0,-4.388027 2.369795,-6.875009 2.369795,-2.486982 6.562508,-2.486982 2.929692,0 4.89584,1.145834 1.966148,1.145835 2.890629,3.398442 l -2.356774,0.781251 q -0.638022,-1.601564 -2.057295,-2.44792 -1.406251,-0.846355 -3.346358,-0.846355 z"
     id="text4"
     style="font-size:26.6667px;font-family:'Liberation Sans';-inkscape-font-specification:'Liberation Sans';fill:#4f4f5b;stroke:#4f4f5b;stroke-width:2.5;stroke-linecap:round;stroke-linejoin:round"
     aria-label="C" />
</svg>
