<?xml version="1.0" encoding="UTF-8" standalone="no"?>
<svg
   width="48pt"
   height="48pt"
   style="isolation:isolate"
   version="1.1"
   viewBox="0 0 48 48"
   id="svg3"
   sodipodi:docname="discord.svg"
   inkscape:version="1.4.3 (0d15f75042, 2025-12-25)"
   xmlns:inkscape="http://www.inkscape.org/namespaces/inkscape"
   xmlns:sodipodi="http://sodipodi.sourceforge.net/DTD/sodipodi-0.dtd"
   xmlns="http://www.w3.org/2000/svg"
   xmlns:svg="http://www.w3.org/2000/svg">
  <defs
     id="defs3">
    <style
       type="text/css"
       id="current-color-scheme">
      .ColorScheme-Text {
        color:#ffffff;
      }
      .ColorScheme-Highlight {
        color:#50c9c3;
      }
      </style>
    <linearGradient
       id="a-3"
       x2="1"
       y1="0.5"
       y2="0.5"
       gradientTransform="matrix(45,0,0,33.7,-59.976328,-7.2813973)"
       gradientUnits="userSpaceOnUse">
      <stop
         stop-color="#50c9c3"
         offset="0"
         id="stop1-6" />
      <stop
         stop-color="#96deda"
         offset=".983"
         id="stop2-7" />
    </linearGradient>
    <clipPath
       clipPathUnits="userSpaceOnUse"
       id="cp1">
      <path
         d="M 0,0 H 5586.5 V 1069.8 H 0 Z"
         id="path1" />
    </clipPath>
    <clipPath
       clipPathUnits="userSpaceOnUse"
       id="cp2">
      <path
         d="M 0,0 H 5586.5 V 1069.8 H 0 Z"
         id="path2" />
    </clipPath>
    <clipPath
       clipPathUnits="userSpaceOnUse"
       id="cp1-7">
      <path
         d="M 0,0 H 5586.5 V 1069.8 H 0 Z"
         id="path1-5" />
    </clipPath>
    <clipPath
       clipPathUnits="userSpaceOnUse"
       id="cp2-3">
      <path
         d="M 0,0 H 5586.5 V 1069.8 H 0 Z"
         id="path2-5" />
    </clipPath>
  </defs>
  <sodipodi:namedview
     id="namedview3"
     pagecolor="#ffffff"
     bordercolor="#666666"
     borderopacity="1.0"
     inkscape:showpageshadow="2"
     inkscape:pageopacity="0.0"
     inkscape:pagecheckerboard="0"
     inkscape:deskcolor="#d1d1d1"
     inkscape:document-units="pt"
     inkscape:current-layer="svg3"
     showguides="false"
     inkscape:zoom="8.0000004"
     inkscape:cx="34.687498"
     inkscape:cy="35.812498"
     inkscape:window-width="1246"
     inkscape:window-height="1061"
     inkscape:window-x="0"
     inkscape:window-y="0"
     inkscape:window-maximized="1">
    <sodipodi:guide
       position="29.843972,48"
       orientation="0,-1"
       id="guide1"
       inkscape:locked="false" />
  </sodipodi:namedview>
  <linearGradient
     id="a"
     x2="1"
     y1=".5"
     y2=".5"
     gradientTransform="matrix(45 0 0 33.7 1.49 12.8)"
     gradientUnits="userSpaceOnUse">
    <stop
       stop-color="#50c9c3"
       offset="0"
       id="stop1"
       style="stop-color:#ffffff;stop-opacity:0;" />
    <stop
       stop-color="#96deda"
       offset="0.98299998"
       id="stop2"
       style="stop-color:#ffffff;stop-opacity:0.40000001;" />
  </linearGradient>
  <path
     id="path815"
     fill-rule="evenodd"
     class="s0"
     d="m 45.914716,35.105507 c -3.826267,2.834859 -7.541673,4.554779 -11.190564,5.67922 -0.905887,-1.225799 -1.704083,-2.533952 -2.397753,-3.905453 1.317656,-0.497288 2.584632,-1.108604 3.781924,-1.824446 -0.313576,-0.231223 -0.623985,-0.471948 -0.924892,-0.722176 -7.186921,3.366988 -15.09285,3.366988 -22.365291,0 -0.29774,0.250228 -0.608149,0.490953 -0.924893,0.722176 1.194125,0.712674 2.454765,1.32399 3.772421,1.818111 -0.690503,1.377836 -1.495032,2.679653 -2.394585,3.90862 C 9.6221931,39.657117 5.9131216,37.937199 2.0836872,35.105507 1.3013297,26.803649 2.8660449,18.381428 8.640287,9.7438206 c 2.860197,-1.3271571 5.923112,-2.2963935 9.125394,-2.8443605 0.39593,0.7031715 0.86471,1.6502359 1.181454,2.400919 q 5.007722,-0.7601855 10.1073,0 c 0.316744,-0.7506831 0.776022,-1.6977475 1.168785,-2.400919 3.199115,0.547967 6.258861,1.5108686 9.122227,2.8380256 5.001386,7.3991383 7.487826,15.7421733 6.569269,25.3680213 z M 20.632214,25.520836 c 0,-2.476938 -1.776934,-4.478759 -3.975138,-4.478759 -2.198203,0 -3.975137,2.001821 -3.975137,4.478759 0,2.476938 1.776934,4.478759 3.975137,4.478759 2.198204,0 3.975138,-2.001821 3.975138,-4.478759 z m 14.687417,0 c 0,-2.476938 -1.776933,-4.478759 -3.975138,-4.478759 -2.198203,0 -3.975136,2.001821 -3.975136,4.478759 0,2.476938 1.776933,4.478759 3.975136,4.478759 2.198205,0 3.975138,-2.001821 3.975138,-4.478759 z"
     style="isolation:isolate;fill:#a1a8f7;stroke:#4f4f5b;stroke-width:3.79896;stroke-linecap:round;stroke-linejoin:round;stroke-dasharray:none;stroke-opacity:1;fill-opacity:1" />
</svg>
