<?xml version="1.0" encoding="UTF-8" standalone="no"?>
<!-- Generator: Gravit.io -->

<svg
   style="isolation:isolate"
   viewBox="0 0 48 48"
   width="48pt"
   height="48pt"
   version="1.1"
   id="svg6"
   sodipodi:docname="librewolf.svg"
   inkscape:version="1.4.3 (0d15f75042, 2025-12-25)"
   xmlns:inkscape="http://www.inkscape.org/namespaces/inkscape"
   xmlns:sodipodi="http://sodipodi.sourceforge.net/DTD/sodipodi-0.dtd"
   xmlns="http://www.w3.org/2000/svg"
   xmlns:svg="http://www.w3.org/2000/svg">
  <defs
     id="defs6">
    <inkscape:path-effect
       effect="fillet_chamfer"
       id="path-effect8"
       is_visible="true"
       lpeversion="1"
       nodesatellites_param="F,0,0,1,0,0,0,1 @ F,0,0,1,0,0,0,1 @ F,0,0,1,0,0,0,1 @ F,0,0,1,0,0,0,1"
       radius="0"
       unit="px"
       method="auto"
       mode="F"
       chamfer_steps="1"
       flexible="false"
       use_knot_distance="true"
       apply_no_radius="true"
       apply_with_radius="true"
       only_selected="false"
       hide_knots="false" />
    <inkscape:path-effect
       effect="fillet_chamfer"
       id="path-effect7"
       is_visible="true"
       lpeversion="1"
       nodesatellites_param="F,0,0,1,0,2.4124998,0,1 @ F,0,0,1,0,2.0153143,0,1 @ F,0,0,1,0,1.3755394,0,1 @ F,0,0,1,0,0,0,1 @ F,0,0,1,0,1.3825135,0,1 @ F,0,0,1,0,2.1960968,0,1"
       radius="0"
       unit="px"
       method="auto"
       mode="F"
       chamfer_steps="1"
       flexible="false"
       use_knot_distance="true"
       apply_no_radius="true"
       apply_with_radius="true"
       only_selected="false"
       hide_knots="false" />
  </defs>
  <sodipodi:namedview
     id="namedview6"
     pagecolor="#ffffff"
     bordercolor="#000000"
     borderopacity="0.25"
     inkscape:showpageshadow="2"
     inkscape:pageopacity="0.0"
     inkscape:pagecheckerboard="0"
     inkscape:deskcolor="#d1d1d1"
     inkscape:document-units="pt"
     inkscape:zoom="8"
     inkscape:cx="27"
     inkscape:cy="29.8125"
     inkscape:window-width="1901"
     inkscape:window-height="1061"
     inkscape:window-x="0"
     inkscape:window-y="0"
     inkscape:window-maximized="1"
     inkscape:current-layer="svg6" />
  <linearGradient
     id="_lgradient_0"
     x1="0"
     y1="0.5"
     x2="1.191860465116279"
     y2="0.5125000000000001"
     gradientTransform="matrix(43,0,0,40,2.5,4)"
     gradientUnits="userSpaceOnUse">
    <stop
       offset="0%"
       stop-opacity="1"
       style="stop-color:rgb(88,0,226)"
       id="stop1" />
    <stop
       offset="100%"
       stop-opacity="1"
       style="stop-color:rgb(255,0,230)"
       id="stop2" />
  </linearGradient>
  <linearGradient
     id="_lgradient_1"
     x1="0"
     y1="0.5"
     x2="0.8860274441759262"
     y2="0.6031697214535364"
     gradientTransform="matrix(19.36,0,0,19.15,7.82,12.225)"
     gradientUnits="userSpaceOnUse">
    <stop
       offset="0%"
       stop-opacity="1"
       style="stop-color:rgb(255,229,59)"
       id="stop3" />
    <stop
       offset="98.69565217391305%"
       stop-opacity="1"
       style="stop-color:rgb(255,0,91)"
       id="stop4" />
  </linearGradient>
  <linearGradient
     id="_lgradient_2"
     x1="1.0000000000000009"
     y1="1"
     x2="0.03793101488976114"
     y2="-0.14874450475548628"
     gradientTransform="matrix(6.712,4.713,-6.435,9.164,17.222,23.805)"
     gradientUnits="userSpaceOnUse">
    <stop
       offset="0%"
       stop-opacity="1"
       style="stop-color:rgb(0,196,255)"
       id="stop5" />
    <stop
       offset="83.88839793817618%"
       stop-opacity="1"
       style="stop-color:rgb(0,114,255)"
       id="stop6" />
  </linearGradient>
  <circle
     style="fill:#00acff;fill-opacity:1;stroke:#4f4f5b;stroke-width:4.09152;stroke-miterlimit:4;stroke-dasharray:none;stroke-opacity:1"
     id="path875"
     cx="24"
     cy="24"
     r="21.954241" />
  <path
     style="fill:#ffffff;stroke-width:0.0973895"
     d="M 21.46496,43.812111 C 17.9726,43.363993 14.632026,41.971807 11.716891,39.749605 10.766091,39.02483 8.9821297,37.229308 8.2033595,36.213323 6.0225789,33.368264 4.6665359,30.139473 4.219178,26.726829 4.0276574,25.265819 4.0287224,22.579724 4.2213175,21.244416 5.1842616,14.569219 9.3851479,8.8436574 15.41756,5.9846066 c 2.80585,-1.3298352 5.374091,-1.892748 8.635528,-1.892748 5.27522,0 9.957576,1.8900605 13.751955,5.5510447 1.827919,1.7636327 3.05368,3.4364087 4.103299,5.5997317 1.419812,2.926282 1.99483,5.471635 1.99483,8.830343 0,4.421438 -1.276864,8.277327 -3.928831,11.864348 -0.788043,1.065896 -2.327507,2.685076 -3.349094,3.522502 -2.802191,2.297109 -6.374055,3.851439 -9.918292,4.316041 -1.224608,0.160525 -4.117516,0.180525 -5.242029,0.03621 z m 7.391977,-3.581712 c 2.133648,-0.672608 3.872441,-1.576445 5.551053,-2.885558 0.892575,-0.696104 2.435345,-2.253676 3.082204,-3.1118 1.754449,-2.327442 2.948216,-5.242845 3.299473,-8.057891 0.169171,-1.355845 0.07094,-4.224242 -0.18735,-5.469323 C 39.918122,17.407542 38.444183,14.621559 36.122096,12.237584 34.674399,10.751306 33.356458,9.7716783 31.660856,8.9215254 29.088008,7.6315234 26.883364,7.1102785 23.9876,7.1073431 20.922216,7.104396 18.234347,7.8068619 15.574101,9.3067124 13.152343,10.672095 10.648786,13.178511 9.2776286,15.610368 c -1.0098417,1.791047 -1.7489717,3.916551 -2.0373709,5.858815 -0.1890925,1.273466 -0.1928193,3.802269 -0.0074,5.021608 0.371071,2.440276 1.2967113,4.852076 2.6385983,6.874967 0.732777,1.104647 0.709767,1.092389 1.356175,0.722534 1.156335,-0.661584 1.457876,-0.981594 2.087788,-2.215676 0.736615,-1.44313 1.524168,-2.704254 2.235766,-3.580171 0.821406,-1.011052 0.934343,-1.191031 1.346416,-2.14563 0.207332,-0.480336 0.579324,-1.185748 0.826643,-1.567608 l 0.44967,-0.69424 -0.581717,-0.571796 c -0.772698,-0.759454 -1.415437,-1.620679 -1.536365,-2.058655 -0.123497,-0.447261 0.0223,-0.696846 0.602717,-1.032114 0.586972,-0.339072 1.006752,-0.436481 2.575548,-0.59772 0.76383,-0.07854 1.593139,-0.222306 1.854318,-0.321566 0.259901,-0.09874 1.036411,-0.52135 1.72555,-0.939171 1.989781,-1.206274 2.158101,-1.268699 3.351043,-1.242837 1.007552,0.0218 1.009453,0.02137 1.606855,-0.339682 1.251968,-0.756776 3.049936,-2.122249 5.415924,-4.113128 0.453705,-0.38176 0.890756,-0.681446 0.971234,-0.66595 0.334672,0.06446 0.949312,1.572689 1.042679,2.558578 0.05661,0.597949 -0.05906,1.189253 -0.41373,2.114679 -0.09672,0.25251 -0.141401,0.493538 -0.09915,0.53563 0.101403,0.101035 0.449576,-0.333846 0.449576,-0.56153 0,-0.290304 0.192223,-0.323437 0.453702,-0.07824 0.190092,0.178267 0.353983,0.229301 0.736313,0.229301 0.41744,0 0.52078,0.03876 0.683745,0.256104 0.276462,0.368911 0.341275,1.37431 0.129682,2.01142 -0.20586,0.619764 -0.828029,1.334531 -1.392677,1.599952 -0.505243,0.23747 -1.528134,1.236207 -2.006791,1.959354 -0.183254,0.276821 -0.526797,0.853912 -0.763452,1.282418 -0.236672,0.428503 -0.633623,1.075918 -0.882151,1.438706 -0.48902,0.713836 -0.907791,1.709637 -1.311995,3.119775 -0.237449,0.828389 -0.257376,1.04406 -0.267175,2.891588 -0.01202,2.23181 -0.127294,2.779428 -0.730633,3.466616 -0.68595,0.781255 -1.370654,2.496915 -1.428234,3.578671 -0.03631,0.682764 -0.141518,1.348342 -0.291001,1.841273 -0.06584,0.217025 0.05699,0.214491 0.789223,-0.01643 z"
     id="path847"
     inkscape:connector-curvature="0" />
  <path
     sodipodi:type="star"
     style="fill:#00acff;fill-opacity:1;stroke:none;stroke-width:1.5;stroke-miterlimit:4;stroke-dasharray:none"
     id="path814"
     sodipodi:sides="4"
     sodipodi:cx="18.854025"
     sodipodi:cy="172.98837"
     sodipodi:r1="1.6036172"
     sodipodi:r2="1.1339285"
     sodipodi:arg1="1.5707963"
     sodipodi:arg2="2.3561945"
     inkscape:flatsided="true"
     inkscape:rounded="0"
     inkscape:randomized="0"
     d="m 18.854025,174.59199 -1.603617,-1.60362 1.603617,-1.60361 1.603617,1.60361 z"
     transform="matrix(0.17081009,0.29585167,-0.73168256,0.42243712,149.30689,-59.935794)" />
</svg>
